<svg width="32" height="32" viewBox="0 0 32 32" fill="none" xmlns="http://www.w3.org/2000/svg">
<path fill-rule="evenodd" clip-rule="evenodd" d="M16 0L32 16L16 32L0 16L16 0Z" fill="#121212"/>
<path fill-rule="evenodd" clip-rule="evenodd" d="M16 2.66669L29.3334 16L16 29.3334L2.66669 16L16 2.66669ZM3.31709 16L16 28.6829L28.6829 16L16 3.31709L3.31709 16Z" fill="#AAAAAA"/>
<path d="M17.382 11.0532V20.9283H17.0876V10.4792H17.3084L25.2997 20.5015V10.4792H25.5941V20.9283H25.2556L17.382 11.0532Z" fill="#D2D2D2"/>
<path d="M16.09 20.9283V11.1267L11.4542 18.8679H11.2187L6.58285 11.1267V20.9283H6.28851V10.4792H6.52399L11.3365 18.5147L16.1489 10.4792H16.3844V20.9283H16.09Z" fill="#D2D2D2"/>
</svg>
