<svg width="25" height="25" viewBox="0 0 25 25" fill="none" xmlns="http://www.w3.org/2000/svg">
<g clip-path="url(#clip0_48_60)">
<path d="M24.2157 12.571C24.2149 6.10146 18.9704 0.856934 12.5 0.856934C6.02974 0.856934 0.784424 6.10225 0.784424 12.5726C0.784424 18.3968 5.03442 23.228 10.6016 24.1351L10.6688 24.1444V15.9585H7.6938V12.571H10.6688V9.99131C10.654 9.86084 10.6461 9.70928 10.6461 9.55615C10.6461 7.27256 12.4977 5.421 14.7813 5.421C14.8915 5.421 15.0008 5.42568 15.1094 5.4335L15.0954 5.43271C16.0321 5.446 16.9383 5.52881 17.8227 5.67646L17.718 5.66162V8.54443H16.2399C16.1727 8.53506 16.0954 8.52959 16.0172 8.52959C15.0821 8.52959 14.3235 9.2874 14.3235 10.2233C14.3235 10.2765 14.3258 10.3288 14.3305 10.3812L14.3297 10.3741V12.571H17.579L17.0594 15.9585H14.3297V24.1444C19.9649 23.2272 24.2149 18.3952 24.2157 12.571Z" fill="#F2F2F2"/>
</g>
<defs>
<clipPath id="clip0_48_60">
<rect width="25" height="25" fill="white"/>
</clipPath>
</defs>
</svg>
